<svg height="478" width="720" xmlns="http://www.w3.org/2000/svg">
<rect height="478" fill="#555" width="720"></rect>
<text fill="#7f7" font-family="Courier New" font-size="12" xml:space="preserve">
<tspan x="10" y="26">3 megabytes installed</tspan>
<tspan x="10" y="42"></tspan>
<tspan x="10" y="58">node_modules</tspan>
<tspan x="10" y="74">└─┬ tinderjs@1.0.8 </tspan>
<tspan x="10" y="90">  └─┬ request@2.34.0 </tspan>
<tspan x="10" y="106">    ├── aws-sign2@0.5.0 </tspan>
<tspan x="10" y="122">    ├── forever-agent@0.5.2 </tspan>
<tspan x="10" y="138">    ├─┬ form-data@0.1.4 </tspan>
<tspan x="10" y="154">    │ ├── async@0.9.2 </tspan>
<tspan x="10" y="170">    │ └─┬ combined-stream@0.0.7 </tspan>
<tspan x="10" y="186">    │   └── delayed-stream@0.0.5 </tspan>
<tspan x="10" y="202">    ├─┬ hawk@1.0.0 </tspan>
<tspan x="10" y="218">    │ ├── boom@0.4.2 </tspan>
<tspan x="10" y="234">    │ ├── cryptiles@0.2.2 </tspan>
<tspan x="10" y="250">    │ ├── hoek@0.9.1 </tspan>
<tspan x="10" y="266">    │ └── sntp@0.2.4 </tspan>
<tspan x="10" y="282">    ├─┬ http-signature@0.10.1 </tspan>
<tspan x="10" y="298">    │ ├── asn1@0.1.11 </tspan>
<tspan x="10" y="314">    │ ├── assert-plus@0.1.5 </tspan>
<tspan x="10" y="330">    │ └── ctype@0.5.3 </tspan>
<tspan x="10" y="346">    ├── json-stringify-safe@5.0.1 </tspan>
<tspan x="10" y="362">    ├── mime@1.2.11 </tspan>
<tspan x="10" y="378">    ├── node-uuid@1.4.8 </tspan>
<tspan x="10" y="394">    ├── oauth-sign@0.3.0 </tspan>
<tspan x="10" y="410">    ├── qs@0.6.6 </tspan>
<tspan x="10" y="426">    ├─┬ tough-cookie@2.3.2 </tspan>
<tspan x="10" y="442">    │ └── punycode@1.4.1 </tspan>
<tspan x="10" y="458">    └── tunnel-agent@0.3.0</tspan>
</text>
</svg>
